<svg width="30" height="30" fill="none" xmlns="http://www.w3.org/2000/svg"><path d="M25.181 2.022H4.79A3.87 3.87 0 00.923 5.888v12.48a3.871 3.871 0 003.853 3.866v5.663l8.138-5.663h12.267a3.871 3.871 0 003.867-3.867V5.889a3.87 3.87 0 00-3.867-3.866zM27.4 18.367a2.221 2.221 0 01-2.219 2.22H12.397l-5.973 4.156v-4.157H4.79a2.221 2.221 0 01-2.22-2.218V5.887c0-1.223.996-2.219 2.22-2.219h20.39c1.224 0 2.219.996 2.219 2.22v12.478z" fill="#7FC1FF"/><path d="M8.45 7.844h13.07v1.648H8.45V7.844zm0 3.516h13.07v1.648H8.45V11.36zm0 3.516h13.07v1.648H8.45v-1.648z" fill="#7FC1FF"/></svg>