<svg width="30" height="30" fill="none" xmlns="http://www.w3.org/2000/svg"><path d="M14.123 6.892L15 8.495l.877-1.603c.457-.834 1.216-1.949 2.33-2.81 1.145-.885 2.423-1.324 3.824-1.324C25.947 2.758 29 5.948 29 10.4c0 2.354-.931 4.377-2.716 6.53-1.81 2.184-4.418 4.412-7.676 7.188h0-.001A373.423 373.423 0 0015 27.223a373.764 373.764 0 00-3.604-3.1l-.003-.002h0c-3.258-2.777-5.867-5.005-7.677-7.189C1.93 14.778 1 12.755 1 10.401c0-4.453 3.053-7.643 6.969-7.643 1.401 0 2.68.439 3.824 1.324l.612-.79-.612.79c1.114.861 1.873 1.976 2.33 2.81z" fill="#9F64FF" stroke="#7FC1FF" stroke-width="2"/></svg>