<svg width="30" height="30" fill="none" xmlns="http://www.w3.org/2000/svg"><path d="M15 28.331a1.76 1.76 0 01-1.16-.436 346.79 346.79 0 00-3.411-2.934l-.005-.004c-3.023-2.576-5.633-4.8-7.449-6.991C.945 15.516 0 13.194 0 10.656c0-2.465.845-4.739 2.38-6.403 1.553-1.685 3.684-2.612 6-2.612 1.732 0 3.318.547 4.714 1.627A9.644 9.644 0 0115 5.258a9.642 9.642 0 011.906-1.99c1.396-1.08 2.982-1.627 4.713-1.627 2.317 0 4.448.927 6.001 2.612C29.155 5.917 30 8.19 30 10.656c0 2.538-.945 4.86-2.975 7.31-1.816 2.19-4.426 4.415-7.448 6.99a344.94 344.94 0 00-3.418 2.94A1.76 1.76 0 0115 28.33zM8.38 3.398c-1.82 0-3.492.726-4.708 2.046-1.235 1.339-1.915 3.19-1.915 5.212 0 2.134.793 4.043 2.571 6.188 1.719 2.074 4.275 4.253 7.235 6.775l.006.005c1.035.882 2.208 1.881 3.428 2.949a407.862 407.862 0 013.44-2.954c2.96-2.523 5.516-4.7 7.235-6.775 1.778-2.145 2.57-4.054 2.57-6.188 0-2.022-.68-3.873-1.914-5.212-1.216-1.32-2.889-2.046-4.709-2.046-1.333 0-2.557.424-3.638 1.26-.964.745-1.635 1.687-2.028 2.346a1.1 1.1 0 01-.953.542 1.1 1.1 0 01-.953-.542c-.393-.659-1.064-1.601-2.028-2.346-1.08-.836-2.305-1.26-3.638-1.26z" fill="#7FC1FF"/></svg>