<svg width="31" height="30" fill="none" xmlns="http://www.w3.org/2000/svg"><g clip-path="url(#clip0)"><path d="M30.345 27.866l-8.736-8.53c1.692-2.042 2.71-4.636 2.71-7.46C24.32 5.327 18.865 0 12.16 0 5.456 0 0 5.328 0 11.875 0 18.423 5.455 23.75 12.16 23.75c2.893 0 5.549-.995 7.639-2.647l8.736 8.53c.25.245.577.367.905.367.327 0 .655-.122.905-.366.5-.489.5-1.279 0-1.768zM12.16 21.25c-5.294 0-9.6-4.205-9.6-9.375S6.866 2.5 12.16 2.5s9.6 4.205 9.6 9.375-4.306 9.375-9.6 9.375z" fill="#7FC1FF"/></g><defs><clipPath id="clip0"><path fill="#fff" d="M0 0h30.72v30H0z"/></clipPath></defs></svg>