<svg width="60" height="56" viewBox="0 0 60 56" fill="none" xmlns="http://www.w3.org/2000/svg">
<path d="M59.1424 28.3551C59.1424 24.2605 54.3081 20.3801 46.8963 17.9738C48.6067 9.96102 47.8465 3.58608 44.4969 1.54509C43.7249 1.06634 42.8221 0.839564 41.8363 0.839564V3.64907C42.3827 3.64907 42.8222 3.76246 43.1904 3.97664C44.8058 4.95934 45.5066 8.70115 44.9602 13.5138C44.8295 14.6981 44.6157 15.9454 44.3544 17.2179C42.0263 16.6131 39.4845 16.147 36.8119 15.8446C35.2084 13.5138 33.5455 11.3973 31.8707 9.54526C35.7429 5.72786 39.3776 3.63647 41.8482 3.63647V0.826965C38.5817 0.826965 34.3057 3.29631 29.9822 7.57986C25.6586 3.32151 21.3826 0.87736 18.1161 0.87736V3.68687C20.5749 3.68687 24.2214 5.76565 28.0936 9.55786C26.4307 11.4099 24.7678 13.5138 23.188 15.8446C20.5036 16.147 17.9617 16.6131 15.6337 17.2305C15.3605 15.9706 15.1585 14.7485 15.016 13.5768C14.4578 8.76414 15.1467 5.02233 16.7502 4.02703C17.1065 3.80026 17.5698 3.69947 18.1161 3.69947V0.889959C17.1184 0.889959 16.2157 1.11674 15.4317 1.59549C12.0941 3.63647 11.3457 9.99881 13.068 17.9864C5.67999 20.4053 0.869446 24.2731 0.869446 28.3551C0.869446 32.4497 5.70375 36.3301 13.1155 38.7364C11.4051 46.7492 12.1653 53.1241 15.5149 55.1651C16.2869 55.6439 17.1897 55.8706 18.1874 55.8706C21.4538 55.8706 25.7299 53.4013 30.0534 49.1177C34.377 53.3761 38.653 55.8202 41.9194 55.8202C42.9172 55.8202 43.8199 55.5935 44.6038 55.1147C47.9415 53.0737 48.6898 46.7114 46.9675 38.7238C54.3318 36.3175 59.1424 32.4371 59.1424 28.3551ZM43.6774 19.9518C43.2379 21.577 42.6915 23.2526 42.0738 24.9283C41.5868 23.9204 41.0761 22.9125 40.5178 21.9046C39.9715 20.8967 39.3894 19.914 38.8074 18.9565C40.4941 19.2211 42.1214 19.5486 43.6774 19.9518ZM38.2373 33.3694C37.3108 35.0702 36.3606 36.6828 35.3747 38.1821C33.6049 38.3459 31.8113 38.4341 30.0059 38.4341C28.2123 38.4341 26.4188 38.3459 24.6609 38.1947C23.675 36.6954 22.7129 35.0954 21.7864 33.4072C20.8837 31.7568 20.0641 30.0811 19.3158 28.3929C20.0522 26.7047 20.8837 25.0165 21.7745 23.366C22.701 21.6652 23.6512 20.0526 24.6371 18.5533C26.4069 18.3895 28.2005 18.3013 30.0059 18.3013C31.7995 18.3013 33.593 18.3895 35.351 18.5407C36.3368 20.04 37.2989 21.64 38.2254 23.3282C39.1281 24.9787 39.9477 26.6543 40.696 28.3425C39.9477 30.0307 39.1281 31.719 38.2373 33.3694ZM42.0738 31.7316C42.7152 33.4198 43.2616 35.108 43.713 36.7458C42.157 37.149 40.5178 37.4892 38.8193 37.7537C39.4013 36.7836 39.9833 35.7883 40.5297 34.7678C41.0761 33.7599 41.5868 32.7394 42.0738 31.7316ZM30.0297 45.1744C28.925 43.9649 27.8204 42.6168 26.7276 41.1428C27.7966 41.1932 28.8894 41.231 29.994 41.231C31.1106 41.231 32.2152 41.2058 33.2961 41.1428C32.2271 42.6168 31.1224 43.9649 30.0297 45.1744ZM21.1925 37.7537C19.5059 37.4892 17.8786 37.1616 16.3226 36.7584C16.7621 35.1332 17.3084 33.4576 17.9261 31.7819C18.4131 32.7898 18.9238 33.7977 19.4821 34.8056C20.0404 35.8135 20.6105 36.7962 21.1925 37.7537ZM29.9703 11.5359C31.0749 12.7453 32.1796 14.0934 33.2723 15.5674C32.2033 15.517 31.1106 15.4792 30.0059 15.4792C28.8894 15.4792 27.7847 15.5044 26.7039 15.5674C27.7729 14.0934 28.8775 12.7453 29.9703 11.5359ZM21.1806 18.9565C20.5986 19.9266 20.0166 20.9219 19.4702 21.9424C18.9238 22.9503 18.4131 23.9582 17.9261 24.9661C17.2847 23.2778 16.7383 21.5896 16.2869 19.9518C17.843 19.5612 19.4821 19.2211 21.1806 18.9565ZM10.4311 34.73C6.22638 32.8276 3.50634 30.3331 3.50634 28.3551C3.50634 26.3771 6.22638 23.87 10.4311 21.9802C11.4526 21.514 12.5692 21.0983 13.7213 20.7077C14.3984 23.177 15.2892 25.7472 16.3938 28.3803C15.3011 31.0008 14.4221 33.5584 13.757 36.0151C12.581 35.6245 11.4645 35.1962 10.4311 34.73ZM16.8215 52.7336C15.2061 51.7509 14.5053 48.0091 15.0516 43.1964C15.1823 42.0121 15.3961 40.7648 15.6574 39.4923C17.9855 40.0971 20.5274 40.5632 23.1999 40.8656C24.8034 43.1964 26.4663 45.3129 28.1411 47.1649C24.2689 50.9823 20.6343 53.0737 18.1637 53.0737C17.6291 53.0611 17.1778 52.9477 16.8215 52.7336ZM44.9958 43.1334C45.5541 47.9461 44.8651 51.6879 43.2616 52.6832C42.9053 52.91 42.4421 53.0107 41.8957 53.0107C39.437 53.0107 35.7904 50.932 31.9183 47.1398C33.5812 45.2877 35.2441 43.1838 36.8238 40.853C39.5082 40.5506 42.0501 40.0845 44.3782 39.4672C44.6513 40.7396 44.8652 41.9617 44.9958 43.1334ZM49.5688 34.73C48.5473 35.1962 47.4308 35.6119 46.2786 36.0025C45.6016 33.5332 44.7107 30.963 43.6061 28.3299C44.6989 25.7094 45.5778 23.1518 46.243 20.6951C47.4189 21.0857 48.5354 21.514 49.5807 21.9802C53.7854 23.8826 56.5055 26.3771 56.5055 28.3551C56.4936 30.3331 53.7736 32.8402 49.5688 34.73Z" fill="#61DAFB"/>
<path d="M29.994 34.1127C32.992 34.1127 35.4222 31.5349 35.4222 28.3551C35.4222 25.1752 32.992 22.5975 29.994 22.5975C26.9961 22.5975 24.5659 25.1752 24.5659 28.3551C24.5659 31.5349 26.9961 34.1127 29.994 34.1127Z" fill="#61DAFB"/>
</svg>
