<svg width="30" height="30" viewBox="0 0 30 30" fill="none" xmlns="http://www.w3.org/2000/svg">
<path d="M24.4141 0H5.58594C5.10055 0 4.70703 0.393516 4.70703 0.878906V29.1211C4.70703 29.4766 4.92119 29.797 5.24961 29.9331C5.35836 29.9781 5.47256 30 5.58576 30C5.81451 30 6.03928 29.9108 6.20744 29.7425L15.0002 20.9499L23.7926 29.7425C24.044 29.9939 24.422 30.0691 24.7504 29.9331C25.0788 29.797 25.293 29.4766 25.293 29.1211V0.878906C25.293 0.393516 24.8995 0 24.4141 0ZM15.0001 18.828C14.7671 18.828 14.5435 18.9206 14.3787 19.0855L6.46484 26.9992V1.75781H23.5351V26.9991L15.6216 19.0855C15.4568 18.9206 15.2333 18.828 15.0001 18.828Z" fill="#67B6FF"/>
</svg>
