<svg width="30" height="30" viewBox="0 0 30 30" fill="none" xmlns="http://www.w3.org/2000/svg">
<path d="M14.1227 6.89228L15 8.49546L15.8772 6.89231C16.3339 6.0578 17.0935 4.94333 18.2071 4.08213C19.3515 3.19702 20.6299 2.75781 22.0312 2.75781C25.9469 2.75781 29 5.94787 29 10.4012C29 12.7553 28.0687 14.7783 26.2843 16.9314C24.4747 19.1151 21.8657 21.3428 18.6078 24.1191L18.6078 24.1191L18.6069 24.1199C17.5198 25.0463 16.2849 26.0987 15 27.2218C13.7159 26.0994 12.4816 25.0475 11.3956 24.122L11.3929 24.1197L11.3929 24.1197C8.13468 21.3431 5.52552 19.1153 3.71574 16.9315C1.93131 14.7783 1 12.7553 1 10.4012C1 5.94787 4.0531 2.75781 7.96875 2.75781C9.37012 2.75781 10.6485 3.19702 11.7929 4.08213L12.4047 3.29109L11.7929 4.08213C12.9065 4.94334 13.6661 6.05776 14.1227 6.89228Z" fill="#9F64FF" stroke="#7FC1FF" stroke-width="2"/>
</svg>
