<svg width="31" height="30" viewBox="0 0 31 30" fill="none" xmlns="http://www.w3.org/2000/svg">
<g clip-path="url(#clip0)">
<path d="M30.3446 27.8663L21.6087 19.3351C23.3009 17.2939 24.3197 14.7002 24.3197 11.8752C24.3197 5.32777 18.8644 0.000305176 12.1598 0.000305176C5.45526 0.000305176 0 5.32771 0 11.8751C0 18.4226 5.45532 23.7501 12.1599 23.7501C15.0526 23.7501 17.7086 22.7551 19.7988 21.1026L28.5347 29.6337C28.7843 29.8775 29.112 30 29.4397 30C29.7674 30 30.0951 29.8775 30.3447 29.6337C30.8451 29.145 30.8451 28.355 30.3446 27.8663ZM12.1599 21.2501C6.86584 21.2501 2.55999 17.0451 2.55999 11.8751C2.55999 6.70518 6.86584 2.50024 12.1599 2.50024C17.4539 2.50024 21.7598 6.70518 21.7598 11.8751C21.7598 17.0451 17.4539 21.2501 12.1599 21.2501Z" fill="#7FC1FF"/>
</g>
<defs>
<clipPath id="clip0">
<rect width="30.72" height="30" fill="white"/>
</clipPath>
</defs>
</svg>
