<svg width="60" height="56" fill="none" xmlns="http://www.w3.org/2000/svg"><path d="M59.142 28.355c0-4.095-4.834-7.975-12.246-10.381 1.71-8.013.95-14.388-2.4-16.429-.771-.479-1.674-.705-2.66-.705v2.81c.547 0 .986.112 1.354.327 1.616.982 2.317 4.724 1.77 9.537a40.96 40.96 0 01-.606 3.704 54.565 54.565 0 00-7.542-1.373c-1.604-2.331-3.267-4.448-4.941-6.3 3.872-3.817 7.507-5.909 9.977-5.909V.827c-3.266 0-7.542 2.47-11.866 6.753C25.66 3.322 21.382.877 18.116.877v2.81c2.459 0 6.105 2.079 9.978 5.87a58.883 58.883 0 00-4.906 6.288c-2.684.302-5.226.768-7.554 1.385a40.092 40.092 0 01-.618-3.653c-.558-4.813.13-8.555 1.734-9.55.357-.227.82-.328 1.366-.328V.89c-.998 0-1.9.227-2.684.705-3.338 2.041-4.086 8.404-2.364 16.391C5.68 20.406.869 24.273.869 28.356c0 4.094 4.835 7.974 12.247 10.38-1.71 8.013-.95 14.388 2.399 16.43.772.478 1.675.705 2.672.705 3.267 0 7.543-2.47 11.866-6.753 4.324 4.258 8.6 6.702 11.866 6.702.998 0 1.9-.227 2.685-.705 3.337-2.041 4.086-8.404 2.364-16.391 7.364-2.406 12.174-6.287 12.174-10.369zm-15.465-8.403a59.14 59.14 0 01-1.603 4.976 60.81 60.81 0 00-1.556-3.023 68.945 68.945 0 00-1.71-2.949 51.16 51.16 0 014.87.996zm-5.44 13.417a67.849 67.849 0 01-2.862 4.813c-1.77.164-3.564.252-5.37.252-1.793 0-3.586-.088-5.344-.24a67.136 67.136 0 01-5.345-9.802 67.258 67.258 0 012.458-5.026 67.849 67.849 0 012.863-4.813 58.287 58.287 0 015.369-.252c1.793 0 3.587.089 5.345.24a67.155 67.155 0 015.345 9.802 72.205 72.205 0 01-2.459 5.026zm3.837-1.637a56.261 56.261 0 011.639 5.014 50.574 50.574 0 01-4.894 1.008 70.563 70.563 0 001.71-2.986 73.117 73.117 0 001.545-3.036zM30.03 45.174a51.193 51.193 0 01-3.302-4.031 69.84 69.84 0 003.266.088c1.117 0 2.221-.025 3.302-.088a48.529 48.529 0 01-3.266 4.031zm-8.838-7.42a50.842 50.842 0 01-4.87-.996c.44-1.625.986-3.3 1.604-4.976a60.81 60.81 0 001.556 3.024 84.567 84.567 0 001.71 2.948zm8.778-26.218a51.172 51.172 0 013.302 4.031 69.321 69.321 0 00-3.266-.088c-1.117 0-2.221.025-3.302.088a48.49 48.49 0 013.266-4.031zm-8.79 7.42a70.563 70.563 0 00-3.254 6.01 56.273 56.273 0 01-1.64-5.014c1.557-.39 3.196-.73 4.895-.996zM10.432 34.73c-4.205-1.902-6.925-4.397-6.925-6.375 0-1.978 2.72-4.485 6.925-6.375 1.022-.466 2.138-.882 3.29-1.272a62.917 62.917 0 002.673 7.672 62.031 62.031 0 00-2.637 7.635 34.765 34.765 0 01-3.326-1.285zm6.39 18.004c-1.615-.983-2.316-4.725-1.77-9.538a40.96 40.96 0 01.606-3.704c2.328.605 4.87 1.071 7.543 1.374 1.603 2.33 3.266 4.447 4.941 6.299-3.872 3.817-7.507 5.909-9.977 5.909-.535-.013-.986-.126-1.343-.34zm28.175-9.6c.558 4.812-.13 8.554-1.734 9.55-.357.226-.82.327-1.366.327-2.459 0-6.106-2.079-9.978-5.871a58.877 58.877 0 004.906-6.287c2.684-.302 5.226-.769 7.554-1.386a37.22 37.22 0 01.618 3.666zm4.573-8.404c-1.022.466-2.138.882-3.29 1.273a62.9 62.9 0 00-2.673-7.673 62.032 62.032 0 002.637-7.635c1.176.39 2.292.819 3.338 1.285 4.204 1.903 6.924 4.397 6.924 6.375-.011 1.978-2.731 4.485-6.936 6.375z" fill="#61DAFB"/><path d="M29.994 34.113c2.998 0 5.428-2.578 5.428-5.758s-2.43-5.758-5.428-5.758c-2.998 0-5.428 2.578-5.428 5.758s2.43 5.758 5.428 5.758z" fill="#61DAFB"/></svg>